<svg width="34" height="21" viewBox="0 0 34 21" fill="none" xmlns="http://www.w3.org/2000/svg">
<path fill-rule="evenodd" clip-rule="evenodd" d="M17.1935 10.7498C19.837 10.7498 21.9801 8.60676 21.9801 5.96322C21.9801 3.31967 19.837 1.17664 17.1935 1.17664C14.5499 1.17664 12.4069 3.31967 12.4069 5.96322C12.4069 8.60676 14.5499 10.7498 17.1935 10.7498Z" fill="white"/>
<path fill-rule="evenodd" clip-rule="evenodd" d="M21.3476 10.2141C20.2714 11.2402 18.8064 11.8716 17.1924 11.8716C15.5784 11.8716 14.1134 11.2402 13.0372 10.2141C12.8519 10.1682 12.6665 10.1228 12.4865 10.0998C12.3065 10.0768 12.1324 10.0768 11.9701 10.1019C11.8082 10.1265 11.6587 10.1767 11.4841 10.2392C11.3094 10.3012 11.1102 10.376 10.8608 10.5255C10.6119 10.6751 10.3123 10.8994 10.026 11.2739C9.73918 11.6472 9.46519 12.1713 9.21577 12.7946C8.96635 13.4174 8.74203 14.1407 8.61759 14.8388C8.49315 15.5364 8.46805 16.21 8.45576 16.7207C8.44294 17.2319 8.44294 17.5812 8.49315 17.9177C8.54282 18.2542 8.64216 18.5779 8.86701 18.9022C9.09133 19.2264 9.44009 19.5506 9.85134 19.7996C10.2626 20.049 10.7363 20.2237 11.3847 20.3107C12.0326 20.3978 12.8551 20.3978 13.8522 20.3978H16.7438H17.1924H17.641H20.5326C21.5297 20.3978 22.3522 20.3978 23.0001 20.3107C23.6485 20.2237 24.1222 20.049 24.5335 19.7996C24.9447 19.5506 25.2935 19.2264 25.5178 18.9022C25.7426 18.5779 25.842 18.2542 25.8917 17.9177C25.9419 17.5812 25.9419 17.2319 25.929 16.7207C25.9168 16.21 25.8917 15.5364 25.7672 14.8388C25.6428 14.1407 25.4185 13.4174 25.169 12.7946C24.9196 12.1713 24.6456 11.6472 24.3588 11.2739C24.0725 10.8994 23.7729 10.6751 23.524 10.5255C23.2746 10.376 23.0754 10.3012 22.9008 10.2392C22.7261 10.1767 22.5766 10.1265 22.4147 10.1019C22.2524 10.0768 22.0783 10.0768 21.8983 10.0998C21.7183 10.1228 21.533 10.1682 21.3476 10.2141Z" fill="white"/>
<path fill-rule="evenodd" clip-rule="evenodd" d="M22.293 8.32214C23.1437 9.0988 24.2763 9.57314 25.519 9.57314C28.1619 9.57314 30.3044 7.4301 30.3044 4.78655C30.3044 2.14301 28.1619 -3.05176e-05 25.519 -3.05176e-05C23.8219 -3.05176e-05 22.3304 0.884 21.4813 2.21672C22.4393 3.09167 23.0406 4.35228 23.0406 5.75231C23.0406 6.69777 22.7661 7.58019 22.293 8.32214Z" fill="white"/>
<path fill-rule="evenodd" clip-rule="evenodd" d="M11.707 8.32214C10.8563 9.0988 9.72365 9.57314 8.48098 9.57314C5.83809 9.57314 3.69559 7.4301 3.69559 4.78655C3.69559 2.14301 5.83809 -3.05176e-05 8.48098 -3.05176e-05C10.1781 -3.05176e-05 11.6696 0.884 12.5187 2.21672C11.5607 3.09167 10.9594 4.35228 10.9594 5.75231C10.9594 6.69777 11.2339 7.58019 11.707 8.32214Z" fill="white"/>
<path fill-rule="evenodd" clip-rule="evenodd" d="M29.4096 9.21419C28.3651 10.2093 26.9551 10.8338 25.3976 10.8701L25.5697 11.0763C25.8566 11.4496 26.1307 11.9737 26.3802 12.597C26.6297 13.2198 26.8541 13.9431 26.9786 14.6412C27.1031 15.3388 27.1282 16.0124 27.1405 16.5231C27.1533 17.0343 27.1533 17.3836 27.1031 17.7201C27.0534 18.0566 26.954 18.3803 26.7291 18.7046C26.5619 18.946 26.3257 19.188 26.0463 19.3979H28.5943C29.5918 19.3979 30.4147 19.3979 31.0628 19.3108C31.7114 19.2238 32.1853 19.0491 32.5967 18.7996C33.0081 18.5507 33.357 18.2265 33.5814 17.9023C33.8064 17.578 33.9057 17.2543 33.9554 16.9178C34.0056 16.5813 34.0056 16.232 33.9928 15.7208C33.9805 15.2101 33.9554 14.5365 33.8309 13.8389C33.7064 13.1408 33.482 12.4175 33.2325 11.7947C32.983 11.1713 32.7089 10.6473 32.422 10.274C32.1356 9.89952 31.8359 9.67517 31.5869 9.52561C31.3374 9.37604 31.1381 9.30126 30.9634 9.2393C30.7887 9.1768 30.6391 9.12659 30.4772 9.10202C30.3147 9.07692 30.1406 9.07692 29.9605 9.09988C29.7804 9.12285 29.595 9.16826 29.4096 9.21419Z" fill="white"/>
<path fill-rule="evenodd" clip-rule="evenodd" d="M4.59033 9.21419C5.63488 10.2093 7.04488 10.8338 8.60235 10.8701L8.43031 11.0763C8.14339 11.4496 7.8693 11.9737 7.61978 12.597C7.37027 13.2198 7.14586 13.9431 7.02137 14.6412C6.89688 15.3388 6.87177 16.0124 6.85948 16.5231C6.84666 17.0343 6.84666 17.3836 6.89688 17.7201C6.94657 18.0566 7.04595 18.3803 7.27089 18.7046C7.43812 18.946 7.67428 19.188 7.95371 19.3979H5.40566C4.40814 19.3979 3.58532 19.3979 2.93722 19.3108C2.28859 19.2238 1.81467 19.0491 1.40326 18.7996C0.991857 18.5507 0.642963 18.2265 0.418559 17.9023C0.193621 17.578 0.0942421 17.2543 0.0445528 16.9178C-0.00567055 16.5813 -0.00567055 16.232 0.00715256 15.7208C0.0194407 15.2101 0.0445528 14.5365 0.169044 13.8389C0.293534 13.1408 0.517938 12.4175 0.767454 11.7947C1.01697 11.1713 1.29106 10.6473 1.57798 10.274C1.86436 9.89952 2.1641 9.67517 2.41308 9.52561C2.6626 9.37604 2.86189 9.30126 3.0366 9.2393C3.21132 9.1768 3.36092 9.12659 3.52281 9.10202C3.68524 9.07692 3.85942 9.07692 4.03947 9.09988C4.21953 9.12285 4.40493 9.16826 4.59033 9.21419Z" fill="white"/>
</svg>
